<?xml version="1.0" encoding="utf-8"?>
<!-- Generator: Adobe Illustrator 24.0.1, SVG Export Plug-In . SVG Version: 6.00 Build 0)  -->
<svg version="1.1" xmlns="http://www.w3.org/2000/svg" xmlns:xlink="http://www.w3.org/1999/xlink" x="0px" y="0px"
	 viewBox="0 0 200 200" style="enable-background:new 0 0 200 200;" xml:space="preserve">
<style type="text/css">
	.st0{display:none;}
	.st1{fill:url(#XMLID_2_);}
	.st2{fill:url(#XMLID_3_);}
	.st3{fill:url(#XMLID_4_);}
	.st4{fill:url(#XMLID_5_);}
	.st5{display:inline;}
	.st6{fill:url(#XMLID_6_);}
	.st7{fill:url(#XMLID_7_);}
	.st8{fill:url(#XMLID_8_);}
	.st9{display:inline;fill-rule:evenodd;clip-rule:evenodd;fill:url(#Icon_1_);}
</style>
<g id="레이어_3" class="st0">
</g>
<g id="레이어_1">
	<g id="XMLID_10963_">
		<linearGradient id="XMLID_2_" gradientUnits="userSpaceOnUse" x1="13.078" y1="173.0278" x2="187.2493" y2="-1.1435">
			<stop  offset="0" style="stop-color:#7C3AED"/>
			<stop  offset="0.5168" style="stop-color:#A855F7"/>
			<stop  offset="1" style="stop-color:#EC4899"/>
		</linearGradient>
		<path id="XMLID_10973_" class="st1" d="M5.82,163.99h188.69c2.37,0,4.29-1.92,4.29-4.29V12.18c0-2.37-1.92-4.29-4.29-4.29H5.82
			c-2.37,0-4.29,1.92-4.29,4.29V159.7C1.53,162.07,3.45,163.99,5.82,163.99z M10.11,16.47h180.11v138.94H10.11V16.47z"/>
		<linearGradient id="XMLID_3_" gradientUnits="userSpaceOnUse" x1="37.1361" y1="141.2503" x2="163.1903" y2="15.1961">
			<stop  offset="0" style="stop-color:#7C3AED"/>
			<stop  offset="0.5168" style="stop-color:#A855F7"/>
			<stop  offset="1" style="stop-color:#EC4899"/>
		</linearGradient>
		<path id="XMLID_10970_" class="st2" d="M171.84,25.62H28.49c-2.37,0-4.29,1.92-4.29,4.29v96.63c0,2.37,1.92,4.29,4.29,4.29h143.35
			c2.37,0,4.29-1.92,4.29-4.29V29.91C176.12,27.54,174.2,25.62,171.84,25.62z M167.55,122.25H32.78V34.2h134.77V122.25z"/>
		<linearGradient id="XMLID_4_" gradientUnits="userSpaceOnUse" x1="93.6469" y1="149.9241" x2="106.6794" y2="136.8917">
			<stop  offset="0" style="stop-color:#7C3AED"/>
			<stop  offset="0.5168" style="stop-color:#A855F7"/>
			<stop  offset="1" style="stop-color:#EC4899"/>
		</linearGradient>
		<path id="XMLID_10967_" class="st3" d="M100.16,134.19c-5.09,0-9.22,4.14-9.22,9.22s4.14,9.22,9.22,9.22
			c5.08,0,9.22-4.14,9.22-9.22S105.25,134.19,100.16,134.19z M100.16,147.48c-2.25,0-4.07-1.83-4.07-4.07
			c0-2.25,1.83-4.07,4.07-4.07s4.07,1.83,4.07,4.07C104.24,145.65,102.41,147.48,100.16,147.48z"/>
		<linearGradient id="XMLID_5_" gradientUnits="userSpaceOnUse" x1="68.614" y1="212.4693" x2="131.7124" y2="149.371">
			<stop  offset="0" style="stop-color:#7C3AED"/>
			<stop  offset="0.5168" style="stop-color:#A855F7"/>
			<stop  offset="1" style="stop-color:#EC4899"/>
		</linearGradient>
		<path id="XMLID_10964_" class="st4" d="M149.7,192.7c2.37,0,4.29-1.92,4.29-4.29v-14.98c0-2.37-1.92-4.29-4.29-4.29H50.62
			c-2.37,0-4.29,1.92-4.29,4.29v14.98c0,2.37,1.92,4.29,4.29,4.29H149.7z M54.91,177.71h90.5v6.41h-90.5V177.71z"/>
	</g>
</g>
<g id="레이어_2" class="st0">
	<g id="XMLID_10838_" class="st5">
		<linearGradient id="XMLID_6_" gradientUnits="userSpaceOnUse" x1="23.8056" y1="176.2871" x2="175.9605" y2="24.1322">
			<stop  offset="0" style="stop-color:#7C3AED"/>
			<stop  offset="0.5168" style="stop-color:#A855F7"/>
			<stop  offset="1" style="stop-color:#EC4899"/>
		</linearGradient>
		<path id="XMLID_10845_" class="st6" d="M36.12,19.92V180.5c0,10.8,8.79,19.59,19.59,19.59h88.35c10.8,0,19.59-8.79,19.59-19.59
			V19.92c0-10.8-8.79-19.59-19.59-19.59H55.71C44.91,0.33,36.12,9.12,36.12,19.92z M55.71,8.15h88.35c6.49,0,11.77,5.28,11.77,11.77
			V180.5c0,6.49-5.28,11.77-11.77,11.77H55.71c-6.49,0-11.77-5.28-11.77-11.77V19.92C43.94,13.43,49.22,8.15,55.71,8.15z"/>
		<linearGradient id="XMLID_7_" gradientUnits="userSpaceOnUse" x1="46.5364" y1="140.1235" x2="153.231" y2="33.4289">
			<stop  offset="0" style="stop-color:#7C3AED"/>
			<stop  offset="0.5168" style="stop-color:#A855F7"/>
			<stop  offset="1" style="stop-color:#EC4899"/>
		</linearGradient>
		<path id="XMLID_10842_" class="st7" d="M68.75,156.31h62.26c8.04,0,14.58-6.54,14.58-14.58V31.82c0-8.04-6.54-14.58-14.58-14.58
			H68.75c-8.04,0-14.58,6.54-14.58,14.58v109.92C54.18,149.77,60.72,156.31,68.75,156.31z M60.43,31.82c0-4.59,3.73-8.32,8.32-8.32
			h62.26c4.59,0,8.32,3.73,8.32,8.32v109.92c0,4.59-3.73,8.32-8.32,8.32H68.75c-4.59,0-8.32-3.73-8.32-8.32V31.82z"/>
		<linearGradient id="XMLID_8_" gradientUnits="userSpaceOnUse" x1="90.4361" y1="184.1092" x2="109.3306" y2="165.2148">
			<stop  offset="0" style="stop-color:#7C3AED"/>
			<stop  offset="0.5168" style="stop-color:#A855F7"/>
			<stop  offset="1" style="stop-color:#EC4899"/>
		</linearGradient>
		<path id="XMLID_10839_" class="st8" d="M99.88,161.3c-7.37,0-13.37,6-13.37,13.37s5.99,13.37,13.37,13.37
			c7.37,0,13.37-6,13.37-13.37S107.25,161.3,99.88,161.3z M99.88,183.34c-4.78,0-8.68-3.89-8.68-8.67s3.89-8.67,8.68-8.67
			c4.78,0,8.67,3.89,8.67,8.67S104.66,183.34,99.88,183.34z"/>
	</g>
</g>
<g id="레이어_4" class="st0">
	<linearGradient id="Icon_1_" gradientUnits="userSpaceOnUse" x1="29.148" y1="173.1527" x2="170.9464" y2="31.3543">
		<stop  offset="0" style="stop-color:#7C3AED"/>
		<stop  offset="0.5168" style="stop-color:#A855F7"/>
		<stop  offset="1" style="stop-color:#EC4899"/>
	</linearGradient>
	<path id="Icon" class="st9" d="M100.11,1.66C44.86,1.66,0.2,46.65,0.2,102.31c0,44.49,28.62,82.16,68.32,95.49
		c4.96,1,6.78-2.17,6.78-4.83c0-2.33-0.16-10.33-0.16-18.67c-27.79,6-33.58-12-33.58-12c-4.47-11.67-11.08-14.66-11.08-14.66
		c-9.1-6.17,0.66-6.17,0.66-6.17c10.09,0.67,15.39,10.33,15.39,10.33c8.93,15.33,23.32,11,29.11,8.33c0.83-6.5,3.47-11,6.29-13.5
		c-22.17-2.33-45.49-11-45.49-49.66c0-11,3.97-20,10.25-27c-0.99-2.5-4.47-12.83,0.99-26.66c0,0,8.44-2.67,27.46,10.33
		c8.14-2.2,16.54-3.32,24.98-3.33c8.44,0,17.04,1.17,24.98,3.33c19.02-13,27.46-10.33,27.46-10.33c5.46,13.83,1.98,24.16,0.99,26.66
		c6.45,7,10.26,16,10.26,27c0,38.66-23.32,47.16-45.65,49.66c3.64,3.17,6.78,9.16,6.78,18.66c0,13.5-0.16,24.33-0.16,27.66
		c0,2.67,1.82,5.83,6.78,4.83c39.7-13.33,68.32-50.99,68.32-95.49C200.02,46.65,155.19,1.66,100.11,1.66z"/>
</g>
</svg>
